<?xml version="1.0" standalone="no"?><!DOCTYPE svg PUBLIC "-//W3C//DTD SVG 1.1//EN" "http://www.w3.org/Graphics/SVG/1.1/DTD/svg11.dtd"><svg t="1571730270650" class="icon" viewBox="0 0 1024 1024" version="1.1" xmlns="http://www.w3.org/2000/svg" p-id="20473" xmlns:xlink="http://www.w3.org/1999/xlink" width="200" height="200"><defs><style type="text/css"></style></defs><path d="M883.626667 300.373333c-14.506667 14.506667-28.586667 28.586667-29.013334 42.666667-1.28 13.653333 13.226667 27.733333 26.88 40.96 20.48 21.333333 40.533333 40.533333 39.68 61.44-0.853333 20.906667-22.613333 42.666667-44.373333 64l-176.213333 176.64L640 625.493333l181.333333-180.906666-40.96-40.96-60.586666 60.16-160-160 163.84-163.413334c16.64-16.64 44.373333-16.64 60.16 0l99.84 99.84c16.64 15.786667 16.64 43.52 0 60.16M128 736l407.893333-408.32 160 160L288 896H128v-160z" fill="" p-id="20474"></path></svg>